<?xml version="1.0" encoding="UTF-8"?>
<svg id="Layer_2" data-name="Layer 2" xmlns="http://www.w3.org/2000/svg" viewBox="0 0 24 16.51">
  <g id="Layer_1-2" data-name="Layer 1">
    <g>
      <path d="M21.81,0H2.19C.98,0,0,.98,0,2.19v4.62c0,1.21.98,2.19,2.19,2.19h19.63c1.21,0,2.19-.98,2.19-2.19V2.19c0-1.21-.98-2.19-2.19-2.19ZM20.68,8.25H3.32v-.45c0-.45.36-.81.81-.81h15.74c.45,0,.81.36.81.81v.45ZM23.25,6.81c0,.79-.64,1.44-1.44,1.44h-.38v-.45c0-.86-.7-1.56-1.56-1.56H4.13c-.86,0-1.56.7-1.56,1.56v.45h-.38c-.79,0-1.44-.64-1.44-1.44V2.19c0-.79.64-1.44,1.44-1.44h19.63c.79,0,1.44.64,1.44,1.44v4.62Z"/>
      <path d="M20.35,2.47c-.67,0-1.22.54-1.22,1.22s.54,1.22,1.22,1.22,1.22-.54,1.22-1.22-.54-1.22-1.22-1.22ZM20.35,4.15c-.26,0-.47-.21-.47-.47s.21-.47.47-.47.47.21.47.47-.21.47-.47.47Z"/>
      <path d="M9.15,11.96c-.1-.18-.33-.24-.51-.14l-.94.54v-1.09c0-.21-.17-.38-.38-.38s-.38.17-.38.38v1.09l-.94-.54c-.18-.1-.41-.04-.51.14-.1.18-.04.41.14.51l.94.54-.94.54c-.18.1-.24.33-.14.51.07.12.2.19.33.19.06,0,.13-.02.19-.05l.94-.54v1.09c0,.21.17.38.38.38s.38-.17.38-.38v-1.09l.94.54c.06.03.12.05.19.05.13,0,.26-.07.33-.19.1-.18.04-.41-.14-.51l-.94-.54.94-.54c.18-.1.24-.33.14-.51Z"/>
      <path d="M12.88,13.15c.23-.24.51-.54.54-1,.03-.42-.16-.83-.56-1.23-.15-.15-.38-.15-.53,0-.15.15-.15.38,0,.53.24.24.36.47.35.66-.01.18-.13.31-.34.52-.22.23-.49.51-.57.94-.09.5.12,1.05.61,1.62.07.09.18.13.28.13.09,0,.17-.03.25-.09.16-.14.17-.37.04-.53-.34-.39-.48-.72-.44-.99.04-.21.19-.37.37-.55Z"/>
      <path d="M17,13.15c.23-.24.51-.54.54-1,.03-.42-.16-.83-.56-1.23-.15-.15-.38-.15-.53,0-.15.15-.15.38,0,.53.24.24.36.47.35.66-.01.18-.13.31-.34.52-.22.23-.49.51-.57.95-.09.5.12,1.05.61,1.62.07.09.18.13.28.13.09,0,.17-.03.25-.09.16-.14.17-.37.04-.53-.34-.39-.48-.72-.44-.99.04-.21.19-.37.37-.55Z"/>
      <path d="M14.46,14.24c.05-.46.33-.78.64-1.15.35-.41.75-.88.8-1.57.04-.64-.23-1.28-.79-1.91-.14-.15-.37-.17-.53-.03-.15.14-.17.37-.03.53.43.48.63.94.6,1.37-.03.45-.3.76-.62,1.13-.35.4-.74.86-.82,1.55-.08.71.19,1.45.83,2.22.07.09.18.14.29.14.08,0,.17-.03.24-.09.16-.13.18-.37.05-.53-.5-.6-.72-1.16-.66-1.65Z"/>
    </g>
  </g>
</svg>