<?xml version="1.0" encoding="UTF-8"?>
<svg id="Layer_2" data-name="Layer 2" xmlns="http://www.w3.org/2000/svg" viewBox="0 0 24 34.69">
  <g id="Layer_1-2" data-name="Layer 1">
    <g>
      <path d="M21.58,1.77h-3.97c-1.5-1.16-3.41-1.77-5.61-1.77s-4.12.61-5.63,1.77h-3.96C1.08,1.77,0,2.88,0,4.25v11.65c0,1.37,1.08,2.48,2.42,2.48h1.43c-.38.19-.72.4-1.03.62-1.13.81-1.76,1.79-1.8,2.85,0,.04,0,.07,0,.11v.02h0s0,.04,0,.05c.01,2.46,1.18,4.76,3.29,6.47.48.39,1,.74,1.55,1.05v2.95c0,1.2.98,2.17,2.17,2.17h7.92c1.2,0,2.17-.98,2.17-2.17v-2.98c.53-.3,1.04-.64,1.51-1.03,2.11-1.72,3.28-4.01,3.29-6.47,0-.01,0-.03,0-.04h0v-.03s0-.07,0-.11c-.04-1.06-.66-2.04-1.8-2.85-.31-.22-.65-.43-1.03-.62h1.47c1.33,0,2.42-1.11,2.42-2.48V4.25c0-1.37-1.08-2.48-2.42-2.48ZM20.21,10.91c0,2.49-.61,4.84-1.76,6.79-1.85-.62-4.11-.95-6.48-.95s-4.59.33-6.43.94c-1.14-1.95-1.75-4.29-1.75-6.78C3.8,4.76,6.86,1.09,12,1.09s8.21,3.67,8.21,9.83ZM1.09,15.9V4.25c0-.77.6-1.4,1.33-1.4h2.81s-.08.09-.11.13c-1.57,1.9-2.41,4.64-2.41,7.92,0,2.29.48,4.48,1.4,6.39h-1.69c-.73,0-1.33-.63-1.33-1.4ZM17.05,32.52c0,.6-.49,1.09-1.09,1.09h-7.92c-.6,0-1.09-.49-1.09-1.09v-2.42h0s0,0,0,0c.58.25,1.18.45,1.81.61,1.12.3,2.27.47,3.42.47,1.52,0,3.04-.29,4.49-.94l.37-.14v2.42ZM11.98,30.02c-1.11,0-2.18-.15-3.17-.42-.44-.13-.88-.28-1.33-.46-2.15-.89-3.84-2.4-4.71-4.25.5.37,1.11.7,1.81,1,1.99.83,4.62,1.29,7.4,1.29s5.41-.46,7.4-1.29c.7-.29,1.31-.63,1.81-.99-1.43,3-5.01,5.13-9.21,5.13ZM21.85,21.93s0,.03,0,.05c-.02,2.27-4.43,4.11-9.87,4.11s-9.86-1.84-9.87-4.11c0-.02,0-.03,0-.05.05-2.26,4.45-4.09,9.87-4.09s9.82,1.83,9.87,4.09ZM22.91,15.9c0,.77-.6,1.4-1.33,1.4h-1.68c.92-1.91,1.4-4.09,1.4-6.39,0-3.28-.84-6.02-2.42-7.93-.04-.04-.07-.09-.11-.13h2.82c.73,0,1.33.63,1.33,1.4v11.65Z"/>
      <path d="M11.81,19.07c-1.67,0-3.26.17-4.46.47-.65.16-1.17.36-1.56.59-.83.49-1,1.09-1,1.51s.17,1.03,1,1.51c.39.23.92.43,1.56.59,1.21.3,2.79.47,4.46.47.07,0,.13,0,.2,0,.07,0,.13,0,.2,0,1.67,0,3.26-.17,4.46-.47.65-.16,1.17-.36,1.56-.59.83-.49,1-1.09,1-1.51s-.17-1.03-1-1.51c-.39-.23-.92-.43-1.56-.59-1.21-.3-2.79-.47-4.46-.47-.07,0-.13,0-.2,0-.07,0-.13,0-.2,0ZM17.75,21.64c0,.81-2.55,1.46-5.74,1.49-3.19-.03-5.74-.68-5.74-1.49s2.55-1.46,5.74-1.49c3.19.03,5.74.68,5.74,1.49Z"/>
      <path d="M5.08,11.58c.01.29.25.52.54.52,0,0,.02,0,.03,0,.3-.01.53-.27.52-.57-.18-3.6,1.19-6.63,3.5-7.72.69-.33,1.47-.48,2.32-.45.3,0,.55-.23.56-.53,0-.3-.23-.55-.53-.56-1.02-.03-1.97.16-2.82.56-2.7,1.27-4.32,4.71-4.12,8.76Z"/>
    </g>
  </g>
</svg>