<?xml version="1.0" encoding="UTF-8"?>
<svg id="Layer_2" data-name="Layer 2" xmlns="http://www.w3.org/2000/svg" viewBox="0 0 24 31.45">
  <g id="Layer_1-2" data-name="Layer 1">
    <g>
      <path d="M4.18,5.88c1.12,0,2.04-.91,2.04-2.04s-.91-2.04-2.04-2.04-2.04.91-2.04,2.04.91,2.04,2.04,2.04ZM4.18,3.11c.4,0,.73.33.73.73s-.33.73-.73.73-.73-.33-.73-.73.33-.73.73-.73Z"/>
      <path d="M11.67,4.07c1.12,0,2.04-.91,2.04-2.04s-.91-2.04-2.04-2.04-2.04.91-2.04,2.04.91,2.04,2.04,2.04ZM11.67,1.31c.4,0,.73.33.73.73s-.33.73-.73.73-.73-.33-.73-.73.33-.73.73-.73Z"/>
      <path d="M23.9,30.45s-2.71-4.33-2.71-6.98c0-.36-.29-.65-.65-.65s-.65.29-.65.65c0,2.2,1.47,5.15,2.32,6.67h-2.65l-.19-.18c-3.1-3.08-1.42-6.09-1.34-6.22.18-.31.08-.71-.23-.89-.31-.18-.71-.08-.9.23-.02.04-.6,1.03-.69,2.49-.07,1.17.17,2.85,1.56,4.58h-2.28c-1.16-1.33-1.61-2.63-1.32-3.88.22-.98.84-1.59.85-1.61.26-.25.27-.66.02-.92-.25-.26-.66-.27-.92-.02-.03.03-2.8,2.73-.28,6.44h0c-.47-.28-2.13-1.38-2.42-3.18-.24-1.49.49-3.15,2.16-4.93h7.2c.36,0,.65-.29.65-.65v-1.48c0-.14-.01-.82-.52-1.35-.18-.18-.46-.39-.88-.5v-.82c.02-.19.02-.73-.36-1.15-.21-.23-.59-.49-1.27-.46h-1.27s-.06,0-.09,0c-.03,0-.06,0-.09,0h-.57V5.29h1.54v8.85c0,.36.29.65.65.65s.65-.29.65-.65V3.35s0-.04,0-.07c-.04-1.11-.95-2.01-2.07-2.01s-2.01.87-2.07,1.97h0v2.75c-.56-.34-1.21-.52-1.93-.52-.15,0-.32,0-.49.02-.21.02-.39.06-.55.1-.68-.67-1.4-.88-2.36-1.01-.12-.02-.25-.02-.38-.02-1.22,0-2.83.72-3.46,1.81-.1.01-.2.03-.32.06-1.3.29-2.46,1.49-2.7,2.78,0,.05-.02.09-.02.13,0,0,0,0,0,0-1.06.58-1.51,1.53-1.59,1.72l-.21.48c-.64.31-1.03.93-1.03,1.65,0,.01,0,.02,0,.04.02,1.07.9,1.93,1.98,1.93h13.07v.53c-.31.09-.52.25-.66.4-.38.42-.38.96-.36,1.15v.82c-.42.11-.7.32-.88.5-.51.53-.53,1.21-.52,1.35v1.22c-1.99,2.11-2.83,4.15-2.51,6.07.21,1.28.91,2.27,1.6,2.96h-5.8c-.76,0-1.34-.26-1.71-.77-.2-.28-.33-.62-.37-1l-1.24-11.97c-.04-.36-.36-.62-.72-.58-.36.04-.62.36-.58.72l1.24,11.97c.06.61.28,1.18.62,1.64.44.59,1.27,1.3,2.76,1.3h7.74s0,0,0,0c0,0,0,0,0,0h9.69c.24,0,.46-.13.57-.34.12-.21.11-.46-.02-.66ZM15.03,13.84H1.98c-.36,0-.67-.28-.67-.65,0,0,0-.01,0-.02,0-.3.2-.44.36-.5.09-.03.18-.05.28-.05h11.72s.43-.02.43-.58c0-.44-.38-.48-.55-.48-.05,0-.08,0-.08,0H2.44s.3-.7,1.03-1.1c.72-.4.54-.3.68-1.04.13-.73.85-1.54,1.7-1.73.85-.19.81.12,1.11-.58.28-.65,1.52-1.26,2.38-1.26.07,0,.14,0,.21.01.86.11,1.31.27,1.8.84.19.22.35.29.5.29.25,0,.5-.18.9-.21.12-.01.25-.02.38-.02.58,0,1.28.15,1.9.91v6.15ZM17.13,2.58c.42,0,.77.34.77.77v.63h-1.54v-.63c0-.42.34-.77.77-.77ZM14.1,19.45c.12-.12.31-.17.58-.17.36,0,.65-.29.65-.65v-1.42s0-.06,0-.09c0-.01,0-.12.03-.14,0,0,.08-.04.26-.04.01,0,.02,0,.03,0h1.28s.06,0,.09,0c.03,0,.06,0,.09,0h1.28s.02,0,.03,0c.18,0,.25.03.26.04.02.02.03.09.03.15,0,.04,0,.05,0,.09v.78h-1.69c-.36,0-.65.29-.65.65s.29.65.65.65h2.34s.07,0,.11-.01c.21.01.37.07.47.17.16.16.16.42.16.42,0,.02,0,0,0,.02v.83h-6.18v-.83s0,0,0,0c0,0,0,0,0,0,0,0,0-.27.16-.43Z"/>
      <path d="M13.94,19.88s0,0,0,0c0,0,0,0,0,0Z"/>
      <path d="M5.38,28.93h2.95c.36,0,.65-.29.65-.65s-.29-.65-.65-.65h-2.36l-1.03-9.9c-.04-.36-.36-.62-.72-.58-.36.04-.62.36-.58.72l1.09,10.49c.03.33.32.59.65.59Z"/>
    </g>
  </g>
</svg>