<?xml version="1.0" encoding="UTF-8"?>
<svg id="Layer_2" data-name="Layer 2" xmlns="http://www.w3.org/2000/svg" viewBox="0 0 24 26.64">
  <g id="Layer_1-2" data-name="Layer 1">
    <g>
      <path d="M23.4,10.95c-1.14-1.25-3.11-3.42-3.11-3.42,0,0-1.78-2.04-3.37-2.04-.27,0-.54.06-.79.2-.05.03-.1.05-.15.08l-3.66-1.98c.04-.28.24-.44.56-.68.34-.25.76-.57.84-1.16.08-.66-.2-1.27-.76-1.64-.55-.37-1.24-.41-1.76-.11-1.01.58-.88,1.71-.87,1.76.02.16.17.27.32.25.16-.02.27-.17.25-.32,0,0-.09-.79.59-1.18.33-.19.79-.16,1.16.09.18.12.58.46.5,1.09-.04.35-.31.54-.61.77-.34.25-.75.56-.8,1.14l-3.75,1.97s-.07-.04-.11-.06c-.25-.14-.52-.2-.8-.2-1.59,0-3.37,2.04-3.37,2.04,0,0-1.97,2.17-3.11,3.42-1.14,1.25-.31,2.44-.31,2.44,0,0,.55,1.1,1.82,2.41.6.62,1.12.78,1.51.78.44,0,.7-.21.7-.21l.97-.97-.07,2.85s-.2,3.02-.54,5.74c-.32,2.59,6.6,2.65,7.25,2.65.03,0,.05,0,.05,0,0,0,.02,0,.05,0,.65,0,7.57-.06,7.25-2.65-.34-2.72-.54-5.74-.54-5.74l-.07-2.85.97.97s.26.21.7.21c.39,0,.91-.16,1.51-.78,1.28-1.31,1.82-2.41,1.82-2.41,0,0,.83-1.19-.31-2.44ZM12.02,4.29l3.35,1.81c-1.35.71-2.4,1.11-3.37,1.13-.98-.01-2.04-.42-3.4-1.14l3.42-1.79ZM7.6,6.19c1.5.84,2.7,1.41,3.83,1.56,0,0,.26.03.58.04.19,0,.4,0,.58-.04,1.12-.16,2.33-.73,3.83-1.56.11-.06.23-.1.36-.12-1.71,2.36-3.47,3.75-4.76,3.75-1.97,0-3.96-2.64-4.71-3.74.11.02.21.06.3.11ZM23.42,12.52c-.03.3-.16.52-.18.54-.02.02-.03.04-.04.07,0,.01-.53,1.04-1.72,2.26-.39.4-.77.6-1.1.6-.17,0-.29-.05-.34-.08l-.93-.93c-.11-.11-.26-.17-.41-.17-.08,0-.15.01-.23.05-.22.09-.35.31-.35.54l.07,2.85s0,.02,0,.02c0,.03.21,3.07.54,5.77.03.23-.03.41-.2.6-.47.53-1.68.96-3.41,1.2-1,.14-1.96.19-2.54.2h-1.15c-.58-.02-1.54-.06-2.54-.2-1.73-.24-2.94-.66-3.41-1.2-.17-.19-.23-.37-.2-.6.33-2.7.54-5.74.54-5.77,0,0,0-.02,0-.02l.07-2.85c0-.24-.13-.45-.35-.54-.07-.03-.15-.05-.23-.05-.15,0-.3.06-.41.17l-.93.93s-.17.08-.34.08c-.33,0-.72-.21-1.1-.6-1.19-1.22-1.72-2.25-1.72-2.26-.01-.03-.02-.04-.04-.07-.02-.03-.15-.24-.18-.54-.05-.41.1-.81.45-1.18,1.13-1.24,3.09-3.4,3.11-3.42,0,0,0,0,0,0,.39-.44,1.49-1.5,2.48-1.77.59.93,2.9,4.27,5.37,4.27,1.54,0,3.51-1.55,5.42-4.26.98.3,2.05,1.32,2.43,1.76,0,0,0,0,0,0,.02.02,1.98,2.19,3.11,3.42.34.37.49.77.45,1.18Z"/>
      <path d="M3.92,20.13c-.69,0-1.11-.19-1.11-1.11,0-.11-.09-.21-.21-.21s-.21.09-.21.21c0,.69-.19,1.11-1.11,1.11-.11,0-.21.09-.21.21s.09.21.21.21c.69,0,1.11.19,1.11,1.11,0,.11.09.21.21.21s.21-.09.21-.21c0-.69.19-1.11,1.11-1.11.11,0,.21-.09.21-.21s-.09-.21-.21-.21ZM2.6,20.72c-.1-.17-.23-.3-.38-.38.17-.1.3-.23.38-.38.1.17.23.3.38.38-.17.1-.3.23-.38.38Z"/>
      <path d="M19.32,4.68c.72,0,1.17.2,1.17,1.17,0,.12.1.22.22.22s.22-.1.22-.22c0-.72.2-1.17,1.17-1.17.12,0,.22-.1.22-.22s-.1-.22-.22-.22c-.72,0-1.17-.2-1.17-1.17,0-.12-.1-.22-.22-.22s-.22.1-.22.22c0,.72-.2,1.17-1.17,1.17-.12,0-.22.1-.22.22s.1.22.22.22ZM20.72,4.06c.11.18.24.31.4.41-.18.11-.31.24-.41.4-.11-.18-.24-.31-.4-.41.18-.11.31-.24.41-.4Z"/>
    </g>
  </g>
</svg>