<?xml version="1.0" encoding="UTF-8"?>
<svg id="Layer_2" data-name="Layer 2" xmlns="http://www.w3.org/2000/svg" viewBox="0 0 24 23.73">
  <g id="Layer_1-2" data-name="Layer 1">
    <g>
      <path d="M8.03,2.47s.95-1,2.39-1.47c1.9-.62,3.76-.1,5.52,1.54.07.07.16.1.26.1.1,0,.2-.04.27-.12.14-.15.13-.39-.02-.53C13.98-.32,11.66-.21,10.16.3c-1.62.54-2.63,1.61-2.68,1.66-.14.15-.13.39.02.53.15.14.39.13.53-.02Z"/>
      <path d="M14.25,4.62c.09,0,.19-.03.26-.11.15-.14.15-.38,0-.53-.75-.77-1.57-1.16-2.45-1.16,0,0,0,0-.01,0-1.47,0-2.54,1.12-2.59,1.17-.14.15-.14.39.01.53.15.14.39.14.53-.01,0,0,.9-.93,2.05-.93,0,0,0,0,0,0,.67,0,1.32.31,1.91.93.07.08.17.11.27.11Z"/>
      <circle cx="12" cy="6.03" r=".71"/>
      <path d="M15.51,10.8c-.39,0-.71.32-.71.71s.32.71.71.71.71-.32.71-.71-.32-.71-.71-.71Z"/>
      <path d="M18.08,12.22c.39,0,.71-.32.71-.71s-.32-.71-.71-.71-.71.32-.71.71.32.71.71.71Z"/>
      <path d="M20.64,12.22c.39,0,.71-.32.71-.71s-.32-.71-.71-.71-.71.32-.71.71.32.71.71.71Z"/>
      <path d="M15.51,13.61c-.39,0-.71.32-.71.71s.32.71.71.71.71-.32.71-.71-.32-.71-.71-.71Z"/>
      <path d="M18.08,15.03c.39,0,.71-.32.71-.71s-.32-.71-.71-.71-.71.32-.71.71.32.71.71.71Z"/>
      <path d="M19.02,16.43c-1.3,0-2.35,1.05-2.35,2.35s1.05,2.35,2.35,2.35,2.35-1.05,2.35-2.35-1.05-2.35-2.35-2.35ZM19.02,20.38c-.88,0-1.6-.72-1.6-1.6s.72-1.6,1.6-1.6,1.6.72,1.6,1.6-.72,1.6-1.6,1.6Z"/>
      <path d="M20.64,15.03c.39,0,.71-.32.71-.71s-.32-.71-.71-.71-.71.32-.71.71.32.71.71.71Z"/>
      <path d="M21.5,7.76H2.5c-1.38,0-2.5,1.12-2.5,2.5v10.94c0,1.38,1.12,2.5,2.5,2.5h5.28c.15.02.31.03.47.03s.32-.01.48-.03h12.77c1.38,0,2.5-1.12,2.5-2.5v-10.94c0-1.38-1.12-2.5-2.5-2.5ZM23.25,21.19c0,.96-.78,1.75-1.75,1.75H2.5c-.97,0-1.75-.79-1.75-1.75v-10.94c0-.96.78-1.75,1.75-1.75h19c.97,0,1.75.79,1.75,1.75v10.94Z"/>
      <path d="M13.01,10.58H3.49c-.35,0-.62.28-.62.62v9.05c0,.34.28.62.62.62h9.52c.35,0,.62-.28.62-.62v-9.05c0-.35-.28-.62-.62-.62ZM5.47,20.13c.04-1.5,1.27-2.71,2.78-2.71s2.74,1.21,2.78,2.71h-5.56ZM9.37,16.85s0,0,0,0c-.35-.12-.72-.18-1.11-.18s-.76.06-1.11.18c-.3-.29-.47-.69-.47-1.12,0-.87.71-1.58,1.58-1.58s1.58.71,1.58,1.58c0,.43-.17.82-.47,1.12ZM12.88,20.13h-1.11c-.02-1.25-.7-2.34-1.7-2.95,0,0,0,0,0,0,.33-.41.51-.91.51-1.45,0-1.28-1.05-2.33-2.33-2.33s-2.33,1.05-2.33,2.33c0,.54.18,1.04.51,1.45,0,0,0,0,0,0-1,.61-1.68,1.7-1.7,2.95h-1.11v-8.8h9.27v8.8Z"/>
    </g>
  </g>
</svg>