<?xml version="1.0" encoding="UTF-8"?>
<svg id="Layer_2" data-name="Layer 2" xmlns="http://www.w3.org/2000/svg" viewBox="0 0 24 14.95">
  <g id="Layer_1-2" data-name="Layer 1">
    <g>
      <path d="M19.83,14.19H.38c-.21,0-.38.17-.38.38s.17.38.38.38h19.45c.21,0,.38-.17.38-.38s-.17-.38-.38-.38Z"/>
      <path d="M23.45,8.78c-.68-2.26-2.32-4.91-2.88-5.62-.61-.79-.58-1.02-1.86-1.02-.27,0-.59.01-.99.03-2.31.1-4.88.72-4.88.72C3.4,5.04.38,13.22.38,13.22h20.72c.62-.59,1.11-.77,2.15-1.06,1.05-.29.87-1.12.19-3.38ZM23.22,11.36s-.06.04-.17.07c-1,.28-1.6.49-2.24,1.03H1.57c.41-.78,1.1-1.94,2.12-3.16,1.08-1.28,2.31-2.38,3.67-3.28,1.7-1.12,3.6-1.93,5.64-2.39,0,0,0,0,0,0,.03,0,2.53-.61,4.74-.7.43-.02.72-.03.96-.03h0c.49,0,.67.04.73.07.06.03.16.17.29.34.07.09.14.19.23.31.54.7,2.11,3.25,2.75,5.38.24.8.4,1.35.47,1.77.08.42.04.56.03.59Z"/>
      <path d="M16.05,7.15h-2.82c-.21,0-.38.17-.38.38s.17.38.38.38h2.82c.21,0,.38-.17.38-.38s-.17-.38-.38-.38Z"/>
      <path d="M20.55,7.17c-.23-.43-1.01-1.87-1.26-2.36-.29-.57-.87-.91-1.54-.91h0c-.09,0-.16,0-.2.01l-.45.04h0s0,0,0,0c-.82.08-1.67.21-2.53.39-2.06.43-4.01,1.16-5.81,2.18-.33.19-.61.36-.83.51-.14.1-.29.2-.47.31-.77.49-.91,1.03-.89,1.4.04.77.7,1.18,1.33,1.18,0,0,0,0,0,0h10.96c.19,0,.36-.02.52-.05.94-.19,1.49-.87,1.45-1.78-.02-.32-.11-.64-.27-.94ZM19.21,9.14c-.12.02-.24.03-.36.03H7.88s0,0,0,0c-.05,0-.55-.01-.57-.45-.01-.31.32-.58.54-.73.17-.11.33-.21.49-.33.19-.13.45-.29.77-.48,1.74-.99,3.63-1.69,5.59-2.1.74-.15,1.57-.29,2.45-.38l.47-.04s.04,0,.12,0c.21,0,.64.06.87.49.25.49,1.02,1.91,1.27,2.37.1.19.17.4.18.61.02.37-.11.85-.84,1Z"/>
      <path d="M18.96,1.44s.4-.12.86-.02c.6.13,1.05.56,1.34,1.27.06.15.2.24.35.24.05,0,.1,0,.14-.03.19-.08.29-.3.21-.49-.23-.56-.53-.96-.87-1.23.13-.15.33-.33.6-.39.33-.08.72.05,1.14.36.17.13.41.09.53-.08.13-.17.09-.41-.08-.53-.61-.46-1.21-.62-1.77-.49-.53.12-.89.49-1.08.74-.61-.24-1.22-.19-1.61-.07-.2.06-.31.27-.25.47.06.2.27.31.47.25Z"/>
    </g>
  </g>
</svg>