<?xml version="1.0" encoding="UTF-8"?>
<svg id="Layer_2" data-name="Layer 2" xmlns="http://www.w3.org/2000/svg" viewBox="0 0 24 23.9">
  <g id="Layer_1-2" data-name="Layer 1">
    <path d="M22.67,15.14h-3.05v-2.79h3.97c.22,0,.4-.18.4-.4s-.18-.4-.4-.4h-11.19v-2.79h3.05c.74,0,1.33-.6,1.33-1.33V1.33c0-.74-.6-1.33-1.33-1.33h-6.91c-.74,0-1.33.6-1.33,1.33v6.09c0,.74.6,1.33,1.33,1.33h3.05v2.79H.4c-.22,0-.4.18-.4.4s.18.4.4.4h3.97v2.79H1.33c-.74,0-1.33.6-1.33,1.33v6.09c0,.74.6,1.33,1.33,1.33h6.91c.74,0,1.33-.6,1.33-1.33v-6.09c0-.74-.6-1.33-1.33-1.33h-3.07v-2.79h13.64v2.79h-3.05c-.74,0-1.33.6-1.33,1.33v6.09c0,.74.6,1.33,1.33,1.33h6.91c.74,0,1.33-.6,1.33-1.33v-6.09c0-.74-.6-1.33-1.33-1.33ZM8.01,7.42V1.33c0-.29.24-.53.53-.53h6.91c.29,0,.53.24.53.53v6.09c0,.29-.24.53-.53.53h-6.91c-.29,0-.53-.24-.53-.53ZM8.77,16.47v6.09c0,.29-.24.53-.53.53H1.33c-.29,0-.53-.24-.53-.53v-6.09c0-.29.24-.53.53-.53h6.91c.29,0,.53.24.53.53ZM23.2,22.57c0,.29-.24.53-.53.53h-6.91c-.29,0-.53-.24-.53-.53v-6.09c0-.29.24-.53.53-.53h6.91c.29,0,.53.24.53.53v6.09Z"/>
  </g>
</svg>