<?xml version="1.0" encoding="UTF-8"?>
<svg id="Layer_2" data-name="Layer 2" xmlns="http://www.w3.org/2000/svg" viewBox="0 0 24 22.41">
  <g id="Layer_1-2" data-name="Layer 1">
    <g>
      <path d="M23.69,17.21h-.56c.08-.17.12-.35.12-.54,0-.36-.14-.68-.38-.91,0,0,0,0,0,0,.24-.23.38-.56.38-.92s-.14-.68-.38-.91c-.23-.23-.56-.38-.91-.38h-3.99V1.56c0-.86-.7-1.56-1.56-1.56H1.56C.7,0,0,.7,0,1.56v19.29c0,.86.7,1.56,1.56,1.56h14.84s.06,0,.08,0c.03,0,.06,0,.08,0h5.87c.86,0,1.56-.7,1.56-1.56v-3.32c0-.17-.14-.31-.31-.31ZM22.5,16.67c0,.3-.24.54-.54.54h-4.91c-.3,0-.54-.24-.54-.54s.24-.54.54-.54h4.91c.3,0,.54.24.54.54ZM21.96,14.29c.3,0,.54.24.54.54s-.24.54-.54.54h-4.91c-.3,0-.54-.24-.54-.54s.24-.54.54-.54h4.91ZM1.56.75h14.84c.45,0,.81.36.81.81v2.92H.75V1.56c0-.45.36-.81.81-.81ZM1.56,21.66c-.45,0-.81-.36-.81-.81V5.23h16.46v8.32h-.16c-.71,0-1.29.58-1.29,1.29,0,.36.14.68.38.91h0c-.24.24-.38.56-.38.92,0,.19.04.38.12.54h-.56c-.17,0-.31.14-.31.31v3.32c0,.3.08.58.23.81H1.56ZM23.25,20.85c0,.45-.36.81-.81.81h-5.87s-.06,0-.08,0h0c-.41-.04-.73-.39-.73-.81v-2.89h7.49v2.89Z"/>
      <path d="M2.62,3.75c.62,0,1.13-.51,1.13-1.13s-.51-1.13-1.13-1.13-1.13.51-1.13,1.13.51,1.13,1.13,1.13ZM2.62,2.23c.21,0,.38.17.38.38s-.17.38-.38.38-.38-.17-.38-.38.17-.38.38-.38Z"/>
      <path d="M15.34,3.75c.62,0,1.13-.51,1.13-1.13s-.51-1.13-1.13-1.13-1.13.51-1.13,1.13.51,1.13,1.13,1.13ZM15.34,2.23c.21,0,.38.17.38.38s-.17.38-.38.38-.38-.17-.38-.38.17-.38.38-.38Z"/>
      <path d="M10.13,3.75h2.25c.62,0,1.13-.51,1.13-1.13s-.51-1.13-1.13-1.13h-2.25c-.62,0-1.13.51-1.13,1.13s.51,1.13,1.13,1.13ZM10.13,2.23h2.25c.21,0,.38.17.38.38s-.17.38-.38.38h-2.25c-.21,0-.38-.17-.38-.38s.17-.38.38-.38Z"/>
      <path d="M8.98,7.11c-3.31,0-6,2.69-6,6s2.69,6,6,6,6-2.69,6-6-2.69-6-6-6ZM8.98,18.35c-2.89,0-5.25-2.35-5.25-5.25s2.35-5.25,5.25-5.25,5.25,2.35,5.25,5.25-2.35,5.25-5.25,5.25Z"/>
      <path d="M8.98,8.98c-2.27,0-4.12,1.85-4.12,4.12s1.85,4.12,4.12,4.12,4.12-1.85,4.12-4.12-1.85-4.12-4.12-4.12ZM8.98,16.48c-1.86,0-3.38-1.51-3.38-3.38s1.51-3.38,3.38-3.38,3.38,1.51,3.38,3.38-1.51,3.38-3.38,3.38Z"/>
      <path d="M10.88,13.11c0,1.05-.85,1.9-1.9,1.9-.21,0-.38.17-.38.38s.17.38.38.38c1.46,0,2.65-1.19,2.65-2.65,0-.21-.17-.38-.38-.38s-.38.17-.38.38Z"/>
    </g>
  </g>
</svg>