<?xml version="1.0" encoding="UTF-8"?>
<svg id="Layer_2" data-name="Layer 2" xmlns="http://www.w3.org/2000/svg" viewBox="0 0 24 18.52">
  <g id="Layer_1-2" data-name="Layer 1">
    <g>
      <path d="M23.29,0H.71c-.39,0-.71.32-.71.71v15.67c0,.39.32.71.71.71h.49v.73c0,.39.32.71.71.71h2.8c.39,0,.71-.32.71-.71v-.73h13.17v.73c0,.39.32.71.71.71h2.8c.39,0,.71-.32.71-.71v-.73h.49c.39,0,.71-.32.71-.71V.71c0-.39-.32-.71-.71-.71ZM4.65,17.75H1.97v-.66h2.67v.66ZM22.03,17.75h-2.68v-.66h2.68v.66ZM23.23,16.31H.77V.77h22.46v15.54Z"/>
      <path d="M3.81,14.54h13.12c.74,0,1.35-.61,1.35-1.35V3.89c0-.74-.61-1.35-1.35-1.35H3.81c-.74,0-1.35.61-1.35,1.35v9.3c0,.74.61,1.35,1.35,1.35ZM3.23,3.89c0-.32.26-.58.58-.58h13.12c.32,0,.58.26.58.58v9.3c0,.32-.26.58-.58.58H3.81c-.32,0-.58-.26-.58-.58V3.89Z"/>
      <path d="M21.59,13.77h-1.8c-.21,0-.39.17-.39.39s.17.39.39.39h1.8c.21,0,.39-.17.39-.39s-.17-.39-.39-.39Z"/>
      <path d="M21.59,11.39h-1.8c-.21,0-.39.17-.39.39s.17.39.39.39h1.8c.21,0,.39-.17.39-.39s-.17-.39-.39-.39Z"/>
      <path d="M20.69,5.4c.79,0,1.43-.64,1.43-1.43s-.64-1.43-1.43-1.43-1.43.64-1.43,1.43.64,1.43,1.43,1.43ZM20.69,3.32c.36,0,.66.29.66.66s-.29.66-.66.66-.66-.29-.66-.66.29-.66.66-.66Z"/>
      <path d="M20.69,9.56c.79,0,1.43-.64,1.43-1.43s-.64-1.43-1.43-1.43-1.43.64-1.43,1.43.64,1.43,1.43,1.43ZM20.69,7.47c.36,0,.66.29.66.66s-.29.66-.66.66-.66-.29-.66-.66.29-.66.66-.66Z"/>
      <path d="M8.18,11.8s.04.04.06.05c.07.07.17.1.26.1.1,0,.21-.04.28-.12.15-.16.14-.4-.02-.55-.02-.02-.04-.04-.07-.06-.19-.17-.55-.5-.81-.99-.34-.67,0-1.23,0-1.24.1-.16.21-.29.31-.42.29-.37.6-.76.6-1.49,0-1.24-.76-1.76-.91-1.85h0c-.06-.03-.13-.05-.2-.05-.21,0-.39.17-.39.39,0,.14.07.26.19.33h0c.05.03.53.35.54,1.2,0,.45-.16.66-.43,1-.11.14-.23.3-.35.48-.22.35-.48,1.16-.04,2,.32.62.76,1.02.98,1.21Z"/>
      <path d="M10.62,11.8s.04.04.06.05c.07.07.17.1.26.1.1,0,.21-.04.28-.12.15-.16.14-.4-.02-.55-.02-.02-.04-.04-.07-.06-.19-.17-.55-.5-.81-.99-.34-.67,0-1.23,0-1.24.1-.16.21-.29.31-.42.29-.37.6-.76.6-1.49,0-1.24-.76-1.76-.91-1.85h0c-.06-.03-.13-.05-.2-.05-.21,0-.39.17-.39.39,0,.14.07.26.19.33h0c.05.03.53.35.54,1.2,0,.45-.16.66-.43,1-.11.14-.23.3-.35.48-.22.35-.48,1.16-.04,2,.32.62.76,1.02.98,1.21Z"/>
      <path d="M13.06,11.8s.04.04.06.05c.07.07.17.1.26.1.1,0,.21-.04.28-.12.15-.16.14-.4-.02-.55-.02-.02-.04-.04-.07-.06-.19-.17-.55-.5-.81-.99-.34-.67,0-1.23,0-1.24.1-.16.21-.29.31-.42.29-.37.6-.76.6-1.49,0-1.24-.76-1.76-.91-1.85h0c-.06-.03-.13-.05-.2-.05-.21,0-.39.17-.39.39,0,.14.07.26.19.33h0c.05.03.53.35.54,1.2,0,.45-.16.66-.43,1-.11.14-.23.3-.35.48-.22.35-.48,1.16-.04,2,.32.62.76,1.02.98,1.21Z"/>
    </g>
  </g>
</svg>