<?xml version="1.0" encoding="UTF-8"?>
<svg id="Layer_2" data-name="Layer 2" xmlns="http://www.w3.org/2000/svg" viewBox="0 0 24 24.25">
  <g id="Layer_1-2" data-name="Layer 1">
    <g>
      <path d="M22.69,0s-.05,0-.07,0c-.05,0-.09,0-.14,0-.03,0-.06,0-.09,0H3.62c-.89,0-1.62.72-1.62,1.62v1.25h-.38c-.89,0-1.62.72-1.62,1.62v16.91c0,1.58,1.28,2.86,2.86,2.86h18.28c1.58,0,2.86-1.28,2.86-2.86V1.31c0-.72-.59-1.31-1.31-1.31ZM3.62,23.51h-.76c-1.17,0-2.11-.95-2.11-2.11V4.49c0-.48.39-.87.87-.87h17.03c.48,0,.87.39.87.87v17.53c0,.57.21,1.1.57,1.5H3.62ZM23.25,21.39c0,.65-.29,1.23-.76,1.62-.85.71-2.18.18-2.23-.92,0-.03,0-.05,0-.08v-3.01c.22.11.48.16.75.12.65-.1,1.12-.67,1.12-1.33v-6.89c0-.2-.16-.38-.36-.39s-.38.16-.38.37v6.92c0,.3-.23.56-.53.58-.33.02-.6-.24-.6-.56V4.49c0-.89-.72-1.62-1.62-1.62H2.75v-1.25c0-.48.39-.87.87-.87h17.89c-.08.17-.13.36-.13.56v7.82c0,.2.16.38.36.39s.38-.16.38-.37V1.31s0-.03,0-.05c.03-.39.51-.56.81-.31.19.16.31.4.31.67v19.78Z"/>
      <path d="M18.12,4.39H2.22c-.38,0-.68.31-.68.68v5.61c0,.38.31.68.68.68h15.89c.38,0,.68-.31.68-.68v-5.61c0-.38-.31-.68-.68-.68ZM18.06,10.62H2.29v-5.49h15.77v5.49Z"/>
      <path d="M2.22,20.82h6c.38,0,.68-.31.68-.68v-6.89c0-.38-.31-.68-.68-.68H2.22c-.38,0-.68.31-.68.68v6.89c0,.38.31.68.68.68ZM2.29,13.31h5.88v6.76H2.29v-6.76Z"/>
      <path d="M18.43,12.57h-8.02c-.21,0-.37.17-.37.37s.17.37.37.37h8.02c.21,0,.37-.17.37-.37s-.17-.37-.37-.37Z"/>
      <path d="M18.43,14.06h-8.02c-.21,0-.37.17-.37.37s.17.37.37.37h8.02c.21,0,.37-.17.37-.37s-.17-.37-.37-.37Z"/>
      <path d="M18.43,15.55h-8.02c-.21,0-.37.17-.37.37s.17.37.37.37h8.02c.21,0,.37-.17.37-.37s-.17-.37-.37-.37Z"/>
      <path d="M18.43,17.04h-8.02c-.21,0-.37.17-.37.37s.17.37.37.37h8.02c.21,0,.37-.17.37-.37s-.17-.37-.37-.37Z"/>
      <path d="M18.43,18.54h-8.02c-.21,0-.37.17-.37.37s.17.37.37.37h8.02c.21,0,.37-.17.37-.37s-.17-.37-.37-.37Z"/>
      <path d="M18.43,20.03h-8.02c-.21,0-.37.17-.37.37s.17.37.37.37h8.02c.21,0,.37-.17.37-.37s-.17-.37-.37-.37Z"/>
      <path d="M18.43,21.52H1.91c-.21,0-.37.17-.37.37s.17.37.37.37h16.52c.21,0,.37-.17.37-.37s-.17-.37-.37-.37Z"/>
      <path d="M3.29,9.86c.21,0,.37-.17.37-.37v-2.05l1.62,2.27s0,0,0,0c0,0,.01.02.02.02,0,0,0,0,0,.01,0,0,.01.01.02.02,0,0,0,0,0,0,.01,0,.02.02.03.02,0,0,0,0,0,0,0,0,.02.01.03.02,0,0,0,0,.01,0,0,0,.02,0,.03.01,0,0,0,0,.01,0,0,0,.02,0,.03,0,0,0,0,0,.01,0,.01,0,.02,0,.03,0,0,0,0,0,0,0,.01,0,.03,0,.04,0,0,0,0,0,0,0,0,0,0,0,0,0,0,0,0,0,0,0,.02,0,.03,0,.05,0,0,0,0,0,.01,0,.02,0,.03,0,.05-.01,0,0,0,0,0,0,.02,0,.03-.01.05-.02,0,0,0,0,0,0,.02,0,.03-.02.04-.03,0,0,0,0,0,0,0,0,0,0,0,0,0,0,.01,0,.02-.01,0,0,0,0,.01-.01,0,0,0,0,.01-.01,0,0,0,0,.01-.02,0,0,0,0,.01-.01,0,0,0-.01.01-.02,0,0,0,0,0-.01,0,0,0-.01.01-.02,0,0,0,0,0-.02,0,0,0-.01,0-.02,0,0,0-.01,0-.02,0,0,0-.01,0-.02,0,0,0-.01,0-.02,0,0,0-.01,0-.02,0,0,0-.01,0-.02,0,0,0-.01,0-.02,0,0,0-.01,0-.02,0,0,0-.01,0-.02,0,0,0,0,0-.01v-3.22c0-.21-.17-.37-.37-.37s-.37.17-.37.37v2.05l-1.62-2.27s0,0,0,0c0,0,0-.01-.01-.02,0,0,0,0-.01-.01,0,0,0,0-.01-.01,0,0,0,0-.01-.01,0,0,0,0-.01-.01,0,0-.01,0-.02-.01,0,0,0,0-.01,0,0,0-.01,0-.02,0,0,0-.01,0-.02,0,0,0-.01,0-.02,0,0,0-.01,0-.02,0,0,0,0,0-.01,0,0,0-.01,0-.02,0,0,0-.01,0-.02,0,0,0-.01,0-.02,0,0,0-.01,0-.02,0,0,0-.01,0-.02,0,0,0-.01,0-.02,0,0,0,0,0-.01,0,0,0,0,0,0,0,0,0-.02,0-.02,0,0,0,0,0-.01,0,0,0-.01,0-.02,0,0,0,0,0-.01,0,0,0-.01,0-.02,0,0,0-.01,0-.02,0,0,0-.01,0-.02,0,0,0-.01,0-.02,0,0,0,0,0-.01,0,0,0-.01,0-.02,0,0,0,0,0-.01,0,0,0-.01,0-.02.01,0,0,0,0,0,0,0,0,0,0,0,0,0,0-.01,0-.02.01,0,0,0,0-.01.01,0,0,0,0-.01.01,0,0,0,0-.01.02,0,0,0,0-.01.01,0,0,0,.01-.01.02,0,0,0,0,0,.01,0,0,0,.01-.01.02,0,0,0,0,0,.02,0,0,0,.01,0,.02,0,0,0,.01,0,.02,0,0,0,.01,0,.02,0,0,0,.01,0,.02,0,0,0,.01,0,.02,0,0,0,.01,0,.02,0,0,0,.01,0,.02,0,0,0,.01,0,.02,0,0,0,.01,0,.02,0,0,0,0,0,.01v3.22c0,.21.17.37.37.37Z"/>
      <path d="M10.33,9.56c.04.18.19.3.36.3.01,0,.02,0,.04,0,0,0,.02,0,.03,0,.16,0,.31-.1.36-.26l.67-2.16.67,2.16c.05.16.2.26.36.26,0,0,.02,0,.03,0,.01,0,.02,0,.04,0,.17,0,.33-.12.36-.3l.68-3.22c.04-.2-.09-.4-.29-.44-.2-.04-.4.09-.44.29l-.41,1.93-.61-1.97c-.05-.17-.22-.28-.39-.26-.17-.01-.33.09-.39.26l-.61,1.97-.41-1.93c-.04-.2-.24-.33-.44-.29-.2.04-.33.24-.29.44l.68,3.22Z"/>
      <path d="M7.14,9.93h1.27c.21,0,.37-.17.37-.37s-.17-.37-.37-.37h-.95v-.93h.95c.21,0,.37-.17.37-.37s-.17-.37-.37-.37h-.95v-.87h.95c.21,0,.37-.17.37-.37s-.17-.37-.37-.37h-1.27s-.06,0-.08,0c-.19.02-.34.18-.34.37v3.22c0,.1.04.19.11.26.06.11.18.18.32.18Z"/>
      <path d="M15.9,9.93s.04,0,.06,0c.43,0,.84-.18,1.2-.52h0s.07-.07.09-.12h0c.17-.39.2-.73.07-1.03-.22-.5-.77-.69-1.26-.85-.12-.04-.28-.09-.4-.15-.12-.05-.19-.17-.17-.3h0c.04-.15.14-.25.28-.31.25-.09.6-.01.94.22.17.11.4.09.52-.07.13-.17.09-.41-.08-.53-.55-.39-1.15-.5-1.64-.32-.27.1-.49.29-.63.54-.07.14-.12.29-.13.44l-.02.13c-.07.65.6.88,1.1,1.05.33.11.73.25.82.45.01.03.02.07.02.11,0,.15-.09.29-.22.37-.16.1-.33.15-.5.14-.25-.01-.52-.15-.73-.36-.14-.15-.37-.18-.53-.05-.16.14-.18.38-.04.54.34.38.8.6,1.26.62Z"/>
    </g>
  </g>
</svg>