<?xml version="1.0" encoding="UTF-8"?>
<svg id="Layer_2" data-name="Layer 2" xmlns="http://www.w3.org/2000/svg" viewBox="0 0 24 18.11">
  <g id="Layer_1-2" data-name="Layer 1">
    <g>
      <rect x="2.65" y="11.79" width="2.69" height="1.57" rx=".43" ry=".43"/>
      <rect x="12.39" y="11.79" width="2.69" height="1.57" rx=".43" ry=".43"/>
      <path d="M15.86,7.54l-1.07-2.43c-.28-.64-.91-1.05-1.61-1.05H4.62c-.7,0-1.33.41-1.61,1.05l-1.07,2.43c-.56-.22-1.75-.83-1.92.52-.15,1.19.77,1.34,1.09,1.36l-.57,1.3h.02c-.05.17-.07.34-.07.51v4.15h0v.98c0,.97.79,1.76,1.76,1.76h.33c.97,0,1.76-.79,1.76-1.76v-.75h9.14v.75c0,.97.79,1.76,1.76,1.76h.33c.97,0,1.76-.79,1.76-1.76v-.75h0v-4.37c0-.18-.03-.34-.07-.5h.02s-.57-1.31-.57-1.31c.32-.02,1.25-.17,1.09-1.36-.17-1.35-1.36-.74-1.92-.52ZM16,14.29H1.8v-3.05c0-.24.2-.44.44-.44h13.32c.24,0,.44.2.44.44v3.05ZM4.21,5.64c.07-.16.23-.26.4-.26h8.56c.17,0,.33.1.4.26l1.69,3.84H2.52l1.69-3.84ZM3.01,16.36c0,.24-.2.44-.44.44h-.33c-.24,0-.44-.2-.44-.44v-.75h1.21v.75ZM16,16.36c0,.24-.2.44-.44.44h-.33c-.24,0-.44-.2-.44-.44v-.75h1.21v.75Z"/>
      <path d="M22.79,0h-4.45c-.67,0-1.21.54-1.21,1.21v4.6c0,.67.54,1.21,1.21,1.21h1.56v10.43c0,.37.29.67.66.67s.66-.3.66-.67V7.02h1.56c.67,0,1.21-.54,1.21-1.21V1.21c0-.67-.54-1.21-1.21-1.21ZM22.68,5.7h-4.23V1.32h4.23v4.38Z"/>
      <path d="M20.17,4.15h.48c.6,0,1.09-.49,1.09-1.09h0c0-.6-.49-1.09-1.09-1.09h-.79c-.25,0-.44.2-.44.44v2.25c0,.21.17.38.38.38h0c.21,0,.38-.17.38-.38v-.51ZM20.64,3.39h-.48v-.66h.48c.18,0,.33.15.33.33h0c0,.18-.15.33-.33.33Z"/>
    </g>
  </g>
</svg>