<?xml version="1.0" encoding="UTF-8"?>
<svg id="Layer_2" data-name="Layer 2" xmlns="http://www.w3.org/2000/svg" viewBox="0 0 24 35.97">
  <g id="Layer_1-2" data-name="Layer 1">
    <g>
      <path d="M15.15,33.28l.53-1.6c-4.35.19-8.73.16-13.06-.07V7.02c4.78-.25,9.6-.25,14.37,0v17.09l1.58-2.2V6.98c.52-.19.9-.67.94-1.25l.09-1.26c.03-.38-.1-.76-.35-1.05-.26-.3-.62-.47-1.02-.5-1.3-.08-2.6-.14-3.91-.18v-1.29c0-.8-.65-1.45-1.45-1.45h-6.14c-.8,0-1.45.65-1.45,1.45v1.29c-1.31.04-2.61.1-3.92.18-.39.03-.75.2-1.01.5C.1,3.71-.02,4.08,0,4.46l.09,1.26c.04.58.43,1.06.94,1.25v24.67c-.51.19-.9.67-.94,1.25l-.09,1.27c-.03.38.1.76.35,1.05.26.3.62.47,1.02.5,2.8.17,5.61.25,8.43.25,1.94,0,3.88-.04,5.81-.12-.37-.44-.58-.98-.61-1.55-4.47.17-8.96.12-13.41-.14l.07-1c4.47.26,8.99.31,13.48.13ZM6.86,1.58h5.87v1.11c-1.96-.04-3.92-.04-5.87,0v-1.11ZM1.59,4.48c5.45-.32,10.98-.32,16.42,0l-.07,1c-5.4-.32-10.87-.32-16.28,0l-.07-1Z"/>
      <path d="M14.65,27.37l1.47-2.04V9.01c0-.51-.41-.92-.92-.92H4.29c-.51,0-.92.41-.92.92v21.09c0,.51.41.92.92.92h10.9s.02,0,.02,0c-.32-.24-.59-.55-.78-.91-.11-.21-.19-.44-.23-.66H4.95V9.67h9.59v17.87c.04-.06.07-.11.11-.17Z"/>
      <path d="M12.85,15.59h-6.23c-.44,0-.79.35-.79.79s.35.79.79.79h6.23c.44,0,.79-.35.79-.79s-.35-.79-.79-.79Z"/>
      <path d="M12.85,17.88h-6.23c-.44,0-.79.35-.79.79s.35.79.79.79h6.23c.44,0,.79-.35.79-.79s-.35-.79-.79-.79Z"/>
      <path d="M12.85,20.16h-6.23c-.44,0-.79.35-.79.79s.35.79.79.79h6.23c.44,0,.79-.35.79-.79s-.35-.79-.79-.79Z"/>
      <path d="M12.85,22.45h-6.23c-.44,0-.79.35-.79.79s.35.79.79.79h6.23c.44,0,.79-.35.79-.79s-.35-.79-.79-.79Z"/>
      <path d="M12.85,24.73h-6.23c-.44,0-.79.35-.79.79s.35.79.79.79h6.23c.44,0,.79-.35.79-.79s-.35-.79-.79-.79Z"/>
      <path d="M12.85,27.02h-6.23c-.44,0-.79.35-.79.79s.35.79.79.79h6.23c.44,0,.79-.35.79-.79s-.35-.79-.79-.79Z"/>
      <path d="M22.42,25.77h-.49l.49-2.19c.03-.12.05-.25.05-.39,0-.82-.62-1.49-1.42-1.57-.05,0-.11,0-.16,0-.04,0-.08,0-.13,0-.27.02-.53.11-.74.26-.13.08-.24.19-.34.31-.03.04-.06.07-.08.11l-1.03,1.43-1.58,2.2-.87,1.22-.61.85c-.34.48-.39,1.12-.12,1.64.16.31.41.55.71.7.21.11.45.16.7.16h.4l-.38,1.14-.53,1.61-.14.43c-.06.19-.09.39-.08.59.03.55.35,1.06.87,1.32.23.11.47.17.71.17.5,0,.99-.24,1.29-.67l.67-.96,4.1-5.83c.19-.26.31-.58.31-.93,0-.87-.71-1.58-1.58-1.58ZM19.13,32.03l-1.15,1.63-.35.49.31-.95.53-1.59.9-2.72h-2.59l.2-.28,1.58-2.2,2.32-3.23-.93,4.16h2.46l-3.29,4.68Z"/>
    </g>
  </g>
</svg>