<?xml version="1.0" encoding="UTF-8"?>
<svg id="Layer_2" data-name="Layer 2" xmlns="http://www.w3.org/2000/svg" viewBox="0 0 24 42.81">
  <g id="Layer_1-2" data-name="Layer 1">
    <g>
      <path d="M22.33,0H1.67C.75,0,0,.75,0,1.67v39.42c0,.95.77,1.71,1.71,1.71h1.84c.95,0,1.71-.77,1.71-1.71v-.37h13.47v.37c0,.95.77,1.71,1.71,1.71h1.84c.95,0,1.71-.77,1.71-1.71V1.67c0-.92-.75-1.67-1.67-1.67ZM3.93,41.09c0,.21-.17.37-.37.37h-1.84c-.21,0-.37-.17-.37-.37v-.37h2.59v.37ZM22.66,41.09c0,.21-.17.37-.37.37h-1.84c-.21,0-.37-.17-.37-.37v-.37h2.59v.37ZM18.73,39.38H1.34V14.74h16.62c.37,0,.67-.3.67-.67s-.3-.67-.67-.67H1.34V1.67c0-.18.15-.33.33-.33h20.66c.18,0,.33.15.33.33v11.73h-1.95c-.37,0-.67.3-.67.67s.3.67.67.67h1.95v24.64h-3.93Z"/>
      <path d="M4.4,15.39c-.92,0-1.66.74-1.66,1.66v7.34c0,.92.74,1.66,1.66,1.66s1.66-.74,1.66-1.66v-7.34c0-.92-.74-1.66-1.66-1.66ZM4.72,24.39c0,.18-.15.32-.32.32s-.32-.15-.32-.32v-7.34c0-.18.15-.32.32-.32s.32.15.32.32v7.34Z"/>
      <path d="M4.4,3.99c-.92,0-1.66.74-1.66,1.66v5.35c0,.92.74,1.66,1.66,1.66s1.66-.74,1.66-1.66v-5.35c0-.92-.74-1.66-1.66-1.66ZM4.72,11c0,.18-.15.32-.32.32s-.32-.15-.32-.32v-5.35c0-.18.15-.32.32-.32s.32.15.32.32v5.35Z"/>
    </g>
  </g>
</svg>