<?xml version="1.0" encoding="UTF-8"?>
<svg id="Layer_2" data-name="Layer 2" xmlns="http://www.w3.org/2000/svg" viewBox="0 0 24 24.68">
  <g id="Layer_1-2" data-name="Layer 1">
    <path d="M23.23,8.81c-.75-1.97-1.84-3.58-3.24-4.8-1.42-1.24-3.1-2.01-5-2.31-.04-.94-.82-1.69-1.78-1.69s-1.73.75-1.78,1.69c-1.9.3-3.58,1.07-5,2.31-1.4,1.22-2.49,2.84-3.24,4.81-.46.11-.8.53-.76,1.03s.49.92,1.01.92h4.01c.21,1.27.31,3.51-.29,4.15-.76.81-1.42,2.66-1.71,3.6-.37-.16-.81-.11-1.13.18-.81.72-2.36,2-3.67,2.53-.4.16-.67.55-.67.98v1.43c0,.58.47,1.06,1.06,1.06h6.29c.23,0,.45-.08.64-.21l.94-.7c.34-.26.51-.7.38-1.14-.05-.17-.14-.32-.26-.45v-.02s3.61-2.79,3.61-2.79c.08-.06.15-.13.22-.2.43-.47,2.16-2.36,3.07-2.85,1.17-.63,1.56-1.45,1.57-1.94,0-.16.02-.31.06-.46.09-.33.27-.84.44-1.31.05-.14.12-.27.21-.38l1.06-1.47h3.72c.52,0,.97-.4,1.01-.92s-.3-.92-.76-1.03ZM13.22.65c.56,0,1.03.41,1.11.95-.36-.03-.73-.05-1.11-.05s-.75.02-1.11.05c.08-.54.55-.95,1.11-.95ZM11.83,2.3c.45-.06.92-.09,1.39-.09s.95.03,1.39.09c3.61.47,6.4,2.76,7.9,6.49H3.93c1.5-3.72,4.29-6.02,7.9-6.49ZM15.82,10.76c-.23.26-.5.65-.82,1.26-.22.41-.4.81-.52,1.09-.08.18-.19.34-.34.46l-.62.52c.1-.45.19-.94.21-1.27.02-.44.61-1.47.99-2.05h1.1ZM12.95,12.77c-.02.41-.19,1.19-.33,1.75-.06.25-.21.48-.41.64h0c-.05.04-.1.09-.14.14-.18.2-.77.8-1.44.56-.74-.27-.59-1.12-.57-1.21,0,0,.25-1.76,0-3.28-.04-.25-.12-.45-.21-.61h3.94c-.34.56-.82,1.45-.85,2.02ZM8.56,22.94s-.02.14-.11.2l-.94.7s-.11.06-.17.06H1.06c-.16,0-.28-.13-.28-.28v-1.43c0-.11.07-.22.18-.26,1.41-.57,3.04-1.92,3.89-2.67.05-.05.12-.07.19-.07.07,0,.15.03.2.09l3.25,3.45c.08.08.08.17.08.22ZM17.54,11.83c-.1.13-.17.28-.22.44-.19.55-.63,1.89-.59,2.1.02.16-.23.77-1.16,1.27-1.02.55-2.75,2.43-3.23,2.96-.07.07-.14.14-.22.2l-3.62,2.79-2.39-2.53c.28-.93.96-2.9,1.64-3.62.91-.97.67-3.54.54-4.5.23-.06.52-.09.72.02.06.03.23.13.3.53.22,1.34.02,2.86,0,3.01-.11.56-.04,1.69,1.07,2.09.21.08.41.11.61.11.83,0,1.44-.61,1.66-.86.04-.05.09-.1.14-.14l2.01-1.67c.15-.13.27-.29.35-.47.12-.29.33-.76.56-1.2.53-1.01.98-1.47,1.14-1.61h1.49l-.77,1.07ZM23.01,10.1H3.45c-.17,0-.33-.13-.34-.3-.02-.2.14-.36.33-.36h19.57c.17,0,.33.13.34.3.02.2-.14.36-.33.36Z"/>
  </g>
</svg>