<?xml version="1.0" encoding="UTF-8"?>
<svg id="Layer_2" data-name="Layer 2" xmlns="http://www.w3.org/2000/svg" viewBox="0 0 24 21.32">
  <g id="Layer_1-2" data-name="Layer 1">
    <g>
      <path d="M22.5,0H1.5C.67,0,0,.67,0,1.5v5.45c0,.82.67,1.5,1.5,1.5h1.19l1.75,4.2c.23.56.77.92,1.38.92h12.36c.61,0,1.15-.36,1.38-.92l1.75-4.2h1.19c.82,0,1.5-.67,1.5-1.5V1.5c0-.82-.67-1.5-1.5-1.5ZM18.77,12.32c-.1.24-.33.39-.59.39H5.82c-.26,0-.49-.15-.59-.39l-1.62-3.87h3.4v1.42c0,.24.19.43.43.43s.43-.19.43-.43v-1.42h3.7v1.42c0,.24.19.43.43.43s.43-.19.43-.43v-1.42h3.7v1.42c0,.24.19.43.43.43s.43-.19.43-.43v-1.42h3.4l-1.62,3.87ZM23.15,6.95c0,.35-.29.64-.64.64H1.5c-.35,0-.64-.29-.64-.64V1.5c0-.35.29-.64.64-.64h21.01c.35,0,.64.29.64.64v5.45Z"/>
      <circle cx="12" cy="4.22" r="1.13"/>
      <path d="M12.13,17.84c1.14,0,2.46-.41,3.78-1.72.17-.17.17-.44,0-.6-.17-.17-.44-.17-.6,0-3.26,3.25-6.48.14-6.61,0-.17-.17-.44-.17-.6,0-.17.17-.17.44,0,.6.04.04.99.98,2.42,1.45.47.16,1.02.27,1.62.27Z"/>
      <path d="M18.07,17.77c-2.51,2.5-5.31,3.27-8.3,2.29-2.27-.75-3.82-2.27-3.84-2.29-.17-.17-.44-.17-.6,0-.17.17-.17.44,0,.6.07.07,1.69,1.67,4.15,2.49.79.26,1.73.46,2.75.46,1.93,0,4.19-.7,6.45-2.95.17-.17.17-.44,0-.6-.17-.17-.44-.17-.6,0Z"/>
    </g>
  </g>
</svg>