<?xml version="1.0" encoding="UTF-8"?>
<svg id="Layer_2" data-name="Layer 2" xmlns="http://www.w3.org/2000/svg" viewBox="0 0 24 24">
  <g id="Layer_1-2" data-name="Layer 1">
    <g>
      <path d="M12,0C5.38,0,0,5.38,0,12s5.38,12,12,12,12-5.38,12-12S18.62,0,12,0ZM12,23.14C5.85,23.14.86,18.14.86,12S5.85.86,12,.86s11.14,5,11.14,11.14-5,11.14-11.14,11.14Z"/>
      <path d="M12,2.56C6.79,2.56,2.56,6.79,2.56,12s4.24,9.44,9.44,9.44,9.44-4.24,9.44-9.44S17.21,2.56,12,2.56ZM12,20.59c-4.73,0-8.59-3.85-8.59-8.59S7.27,3.41,12,3.41s8.59,3.85,8.59,8.59-3.85,8.59-8.59,8.59Z"/>
      <path d="M18.35,12H5.64c-.28,0-.5.22-.5.5v1.58c0,.28.22.5.5.5h12.71c.28,0,.5-.22.5-.5v-1.58c0-.28-.22-.5-.5-.5ZM16.29,12.85v.86h-6v-.86h6ZM6,12.85h3.44v.86h-3.44v-.86ZM17.99,13.72h-.85v-.86h.85v.86Z"/>
      <path d="M12.58,8.91c1.16,1.05,1.95,1.03,2.95,1h.15c.17,0,.41.01.52.13.1.11.14.33.1.62-.03.23.14.45.38.47.02,0,.03,0,.05,0,.21,0,.4-.16.42-.38.06-.56-.04-.99-.32-1.3-.27-.29-.66-.43-1.17-.41h-.15c-.96.04-1.44.05-2.34-.77-.7-.64-.76-2.15-.73-2.67.02-.24-.16-.44-.4-.46-.23-.02-.44.16-.46.4,0,.09-.15,2.32,1,3.37Z"/>
      <path d="M15.34,8.16c.86-.07,1.52.09,1.96.49.46.42.69,1.11.7,2.06,0,.23.19.42.43.42h0c.24,0,.43-.2.42-.43-.01-1.2-.34-2.1-.98-2.69-.62-.56-1.5-.8-2.61-.71-.39.03-.67-.05-.86-.24-.35-.38-.31-1.16-.27-1.42.04-.23-.12-.45-.35-.49-.23-.04-.45.12-.49.35-.02.14-.22,1.39.48,2.14.25.28.73.59,1.56.52Z"/>
    </g>
  </g>
</svg>