<?xml version="1.0" encoding="UTF-8"?>
<svg id="Layer_2" data-name="Layer 2" xmlns="http://www.w3.org/2000/svg" viewBox="0 0 24 18.15">
  <g id="Layer_1-2" data-name="Layer 1">
    <g>
      <path d="M15.88,8.2c-.15,2.27,1.74,4.15,4.01,4.01,1.88-.12,3.39-1.64,3.51-3.51.15-2.27-1.74-4.15-4.01-4.01-1.88.12-3.39,1.64-3.51,3.51ZM19.37,5.51c1.84-.16,3.37,1.37,3.21,3.21-.13,1.41-1.26,2.54-2.67,2.67-1.84.16-3.37-1.37-3.21-3.21.13-1.41,1.26-2.54,2.67-2.67Z"/>
      <path d="M.49,13.71s1.21-.24,2.69.96c.47.38.94.52,1.4.52.77,0,1.51-.39,2.16-.74.53-.28,1.03-.55,1.4-.53.57.03,1.13.28,1.71.55.64.29,1.3.59,2.01.59.52,0,1.04-.29,1.63-.63,1.01-.57,2.15-1.21,3.46-.45,2.02,1.15,3.41,1.38,4.52.73.12-.07.24-.15.36-.22.56-.35,1.19-.74,1.6-.61.21.06.44-.02.53-.22.1-.22-.02-.47-.24-.55-.79-.28-1.61.23-2.33.68-.12.08-.23.15-.34.21-.55.33-1.48.54-3.69-.73-.4-.23-.78-.36-1.15-.42l-3.69-5.49c-.16-.25-.22-.55-.14-.84s.27-.53.53-.66l4.67-2.36c.45-.23.81-.62.96-1.1.16-.51.11-1.04-.16-1.5-.49-.84-1.55-1.16-2.42-.73l-7.91,3.94c-.47.23-.81.65-.96,1.15-.14.48-.06.99.18,1.43l1.1,1.99L1.53,12.95c-.7-.15-1.17-.05-1.2-.05-.22.05-.36.26-.32.49s.26.36.49.32ZM8.64,9.51c.46-.29.62-.89.36-1.37l-1.02-1.85c-.14-.25-.17-.53-.08-.81.08-.27.27-.49.52-.62l7.91-3.94c.58-.29,1.31.02,1.47.7.02.09.03.19.02.29-.03.38-.24.69-.57.85l-4.7,2.37c-.47.24-.82.67-.96,1.18s-.04,1.06.25,1.5l3.38,5.04c-.82.13-1.54.53-2.13.87-.48.27-.93.52-1.23.52-.53,0-1.08-.25-1.67-.52-.63-.29-1.28-.59-2.01-.63-.6-.03-1.2.29-1.83.62-1.11.59-1.89.93-2.66.3-.41-.33-.8-.57-1.16-.74l6.11-3.78Z"/>
      <path d="M23.7,16.07c-.78-.25-1.58.25-2.3.69-.12.08-.23.15-.34.21-.55.33-1.48.54-3.69-.73-1.72-.98-3.19-.15-4.27.45-.48.27-.93.52-1.23.52-.53,0-1.08-.25-1.67-.52-.63-.29-1.28-.59-2.01-.63-.6-.03-1.2.29-1.83.62-1.11.59-1.89.93-2.66.3-1.78-1.44-3.31-1.14-3.37-1.12-.22.05-.36.26-.32.49s.26.36.49.32c.01,0,1.21-.24,2.69.96.47.38.94.52,1.4.52.77,0,1.51-.39,2.16-.74.53-.28,1.03-.55,1.4-.53.57.03,1.13.28,1.71.55.64.29,1.3.59,2.01.59.52,0,1.04-.29,1.63-.63,1.01-.57,2.15-1.21,3.46-.45,2.02,1.15,3.41,1.38,4.52.73.12-.07.24-.15.36-.22.56-.35,1.2-.75,1.62-.6.23.08.48-.05.53-.29.05-.21-.08-.42-.29-.49Z"/>
    </g>
  </g>
</svg>